<svg width="22" height="31" viewBox="0 0 22 31" fill="none" xmlns="http://www.w3.org/2000/svg">
<path d="M11 13.2856C12.2149 13.2856 13.1998 12.2944 13.1998 11.0715C13.1998 9.84863 12.2149 8.85721 11 8.85721C9.78507 8.85721 8.80008 9.84863 8.80008 11.0715C8.80008 12.2944 9.78507 13.2856 11 13.2856Z" fill="#FFFEFE"/>
<path d="M11 0C4.93483 0 0 4.7505 0 10.5875C0 13.3672 1.2588 17.0638 3.74131 21.5749C5.73505 25.1968 8.0417 28.472 9.24137 30.1016C9.44415 30.3801 9.70918 30.6065 10.015 30.7626C10.321 30.9187 10.6591 31 11.002 31C11.345 31 11.6832 30.9187 11.9891 30.7626C12.295 30.6065 12.56 30.3801 12.7628 30.1016C13.9603 28.472 16.269 25.1968 18.2628 21.5749C20.7413 17.0652 22 13.3686 22 10.5875C22 4.7505 17.0651 0 11 0ZM11 15.5006C10.1298 15.5006 9.27902 15.2409 8.55554 14.7542C7.83192 14.2676 7.26799 13.5759 6.93493 12.7667C6.60193 11.9574 6.51478 11.0669 6.68455 10.2079C6.85433 9.34877 7.27343 8.5596 7.88868 7.94026C8.50414 7.32092 9.28806 6.89915 10.1416 6.72827C10.9952 6.55732 11.8798 6.64503 12.6839 6.98027C13.4878 7.31545 14.175 7.88312 14.6585 8.61146C15.1419 9.33967 15.4 10.1959 15.4 11.0719C15.3987 12.246 14.9348 13.3717 14.1099 14.202C13.285 15.0323 12.1666 15.4993 11 15.5006Z" fill="#FFFEFE"/>
</svg>
