<svg width="26" height="26" viewBox="0 0 26 26" fill="none" xmlns="http://www.w3.org/2000/svg">
<path d="M19.5 1.74185C21.4763 2.88283 23.1174 4.52393 24.2584 6.50018C25.3993 8.47643 26 10.7182 26 13.0002C26 15.2822 25.3993 17.5239 24.2583 19.5002C23.1173 21.4764 21.4761 23.1175 19.4999 24.2584C17.5236 25.3994 15.2818 26 12.9998 26C10.7178 26 8.47603 25.3992 6.49979 24.2582C4.52355 23.1172 2.88248 21.4761 1.74153 19.4998C0.600574 17.5235 -5.79666e-05 15.2817 4.19584e-09 12.9998L0.00650015 12.5786C0.0793042 10.3335 0.732612 8.14555 1.90273 6.22811C3.07285 4.31066 4.71985 2.72913 6.68316 1.6377C8.64647 0.546263 10.8591 -0.0178239 13.1053 0.000429316C15.3515 0.0186825 17.5547 0.618653 19.5 1.74185ZM11.7 6.49981V13.0284L11.7039 13.0986L11.7299 13.2741L11.7364 13.3066C11.7544 13.38 11.7787 13.4518 11.8092 13.5211L11.8612 13.6277L11.9418 13.7564L12.0328 13.8695L12.1303 13.9657L12.2525 14.0632L12.3565 14.1308L12.4475 14.1763L12.6191 14.2426L12.7946 14.2829L12.9012 14.2959L13.0624 14.2985L13.2093 14.2829L13.3497 14.2517L13.4875 14.2049L13.6279 14.1386L13.7124 14.0866L17.6215 11.4814C17.9084 11.29 18.1075 10.9926 18.175 10.6544C18.2425 10.3163 18.173 9.96515 17.9816 9.67829C17.7902 9.39143 17.4928 9.19234 17.1546 9.12481C16.8165 9.05728 16.4654 9.12684 16.1785 9.31819L14.3 10.5688V6.49981C14.3 6.1814 14.1831 5.87408 13.9715 5.63614C13.7599 5.39819 13.4683 5.24618 13.1521 5.20892L13 5.19982C12.6552 5.19982 12.3246 5.33679 12.0808 5.58058C11.837 5.82438 11.7 6.15503 11.7 6.49981Z" fill="#FFFAF5"/>
</svg>
