<svg width="29" height="29" viewBox="0 0 29 29" fill="none" xmlns="http://www.w3.org/2000/svg">
<path d="M28.9987 8.41387C28.639 19.8444 19.2573 29 7.73591 29C3.33096 29 0 25.5619 0 21.2222C3.19939e-05 20.6426 0.173793 20.0763 0.498866 19.5964C0.82394 19.1165 1.28541 18.7449 1.82374 18.5297L5.79807 16.9405C6.44232 16.6828 7.14806 16.6198 7.82782 16.7592C8.50758 16.8986 9.13148 17.2343 9.62219 17.7248L11.6052 19.7078C11.6928 19.7954 11.7915 19.8057 11.8514 19.7877C13.7245 19.2158 15.4284 18.1927 16.8133 16.8083C18.1982 15.4239 19.2216 13.7206 19.7936 11.8481C19.8123 11.7875 19.802 11.6889 19.7143 11.6013L17.7307 9.61898C17.2401 9.12843 16.9042 8.50474 16.7648 7.82521C16.6253 7.14568 16.6884 6.44018 16.9462 5.79613L18.5359 1.82313C18.7512 1.28498 19.1229 0.823665 19.6029 0.4987C20.083 0.173735 20.6495 3.19832e-05 21.2293 0C25.9772 0 29.0722 3.77709 28.9987 8.41387Z" fill="#FFFAF5"/>
</svg>
