<svg width="31" height="31" viewBox="0 0 31 31" fill="none" xmlns="http://www.w3.org/2000/svg">
<path d="M27.5456 12.685H26.5281V12.6326H15.1588V17.6856H22.2981C21.2565 20.6271 18.4578 22.7386 15.1588 22.7386C10.9731 22.7386 7.57936 19.3449 7.57936 15.1591C7.57936 10.9733 10.9731 7.5796 15.1588 7.5796C17.091 7.5796 18.8488 8.3085 20.1872 9.49911L23.7603 5.92601C21.5041 3.82334 18.4862 2.52661 15.1588 2.52661C8.18256 2.52661 2.52637 8.1828 2.52637 15.1591C2.52637 22.1354 8.18256 27.7916 15.1588 27.7916C22.1351 27.7916 27.7913 22.1354 27.7913 15.1591C27.7913 14.3121 27.7042 13.4853 27.5456 12.685Z" fill="#FFC107"/>
<path d="M3.9834 9.2793L8.1338 12.3231C9.25683 9.54269 11.9766 7.5796 15.1594 7.5796C17.0915 7.5796 18.8493 8.3085 20.1877 9.49911L23.7608 5.92601C21.5046 3.82334 18.4867 2.52661 15.1594 2.52661C10.3072 2.52661 6.09934 5.26596 3.9834 9.2793Z" fill="#FF3D00"/>
<path d="M15.1592 27.7914C18.4221 27.7914 21.387 26.5426 23.6286 24.512L19.7188 21.2035C18.4082 22.2009 16.8062 22.7401 15.1592 22.7384C11.8734 22.7384 9.08356 20.6433 8.03254 17.7195L3.91309 20.8934C6.00376 24.9844 10.2495 27.7914 15.1592 27.7914Z" fill="#4CAF50"/>
<path d="M27.546 12.685H26.5284V12.6326H15.1592V17.6856H22.2984C21.8002 19.0855 20.9028 20.3088 19.717 21.2043L19.7189 21.2031L23.6286 24.5115C23.352 24.7629 27.7917 21.4753 27.7917 15.1591C27.7917 14.3121 27.7045 13.4853 27.546 12.685Z" fill="#1976D2"/>
</svg>
