<svg width="85" height="85" viewBox="0 0 85 85" fill="none" xmlns="http://www.w3.org/2000/svg">
<circle cx="42.5" cy="42.5" r="42.5" fill="#E41B38"/>
<path d="M27.3125 57.0625C27.0307 57.0625 26.7605 56.9506 26.5612 56.7513C26.3619 56.552 26.25 56.2818 26.25 56V37.9375C26.25 37.6557 26.3619 37.3855 26.5612 37.1862C26.7605 36.9869 27.0307 36.875 27.3125 36.875H56C56.2818 36.875 56.552 36.9869 56.7513 37.1862C56.9506 37.3855 57.0625 37.6557 57.0625 37.9375V48.095C57.0621 48.1987 57.0921 48.3002 57.1488 48.3871C57.2054 48.4739 57.2862 48.5423 57.3812 48.5837C57.482 48.6231 57.5921 48.632 57.6979 48.6093C57.8037 48.5866 57.9004 48.5334 57.9762 48.4562L61.1637 45.2687C61.2557 45.1705 61.3086 45.042 61.3125 44.9075V28.375C61.3125 27.8114 61.0886 27.2709 60.6901 26.8724C60.2916 26.4739 59.7511 26.25 59.1875 26.25H53.875C53.7341 26.25 53.599 26.194 53.4993 26.0944C53.3997 25.9948 53.3438 25.8596 53.3438 25.7188V23.5938C53.3438 23.1711 53.1758 22.7657 52.877 22.4668C52.5781 22.1679 52.1727 22 51.75 22C51.3273 22 50.9219 22.1679 50.623 22.4668C50.3242 22.7657 50.1562 23.1711 50.1562 23.5938V31.5625C50.1562 31.9852 49.9883 32.3906 49.6895 32.6895C49.3906 32.9883 48.9852 33.1562 48.5625 33.1562C48.1398 33.1562 47.7344 32.9883 47.4355 32.6895C47.1367 32.3906 46.9688 31.9852 46.9688 31.5625V27.3125C46.9688 27.0307 46.8568 26.7605 46.6576 26.5612C46.4583 26.3619 46.188 26.25 45.9062 26.25H36.875C36.7341 26.25 36.599 26.194 36.4993 26.0944C36.3997 25.9948 36.3438 25.8596 36.3438 25.7188V23.5938C36.3438 23.1711 36.1758 22.7657 35.877 22.4668C35.5781 22.1679 35.1727 22 34.75 22C34.3273 22 33.9219 22.1679 33.623 22.4668C33.3242 22.7657 33.1562 23.1711 33.1562 23.5938V31.5625C33.1562 31.9852 32.9883 32.3906 32.6895 32.6895C32.3906 32.9883 31.9852 33.1562 31.5625 33.1562C31.1398 33.1562 30.7344 32.9883 30.4355 32.6895C30.1367 32.3906 29.9688 31.9852 29.9688 31.5625V27.3125C29.9688 27.0307 29.8568 26.7605 29.6576 26.5612C29.4583 26.3619 29.188 26.25 28.9062 26.25H24.125C23.5614 26.25 23.0209 26.4739 22.6224 26.8724C22.2239 27.2709 22 27.8114 22 28.375V57.0625C22 58.1897 22.4478 59.2707 23.2448 60.0677C24.0418 60.8647 25.1228 61.3125 26.25 61.3125H44.9075C45.042 61.3086 45.1705 61.2557 45.2687 61.1637L48.4562 57.9762C48.5273 57.901 48.5766 57.8079 48.599 57.7069C48.6215 57.6059 48.6162 57.5007 48.5837 57.4025C48.5456 57.3035 48.4786 57.2182 48.3915 57.1576C48.3044 57.097 48.2011 57.0639 48.095 57.0625H27.3125Z" fill="white"/>
<path d="M46.735 73.0001L53.3225 71.1301C53.5034 71.0814 53.6682 70.9858 53.8002 70.8529C53.9323 70.72 54.0268 70.5545 54.0743 70.3733C54.1217 70.192 54.1204 70.0015 54.0705 69.8209C54.0206 69.6403 53.9238 69.4762 53.79 69.3451L49.0725 64.6488C48.9439 64.514 48.7809 64.417 48.601 64.3683C48.4212 64.3196 48.2315 64.3211 48.0525 64.3726C47.8752 64.4155 47.7128 64.5052 47.582 64.6323C47.4511 64.7593 47.3568 64.9192 47.3087 65.0951L45.375 71.6401C45.3217 71.8229 45.3185 72.0168 45.3657 72.2013C45.413 72.3858 45.509 72.5542 45.6437 72.6889C45.7784 72.8236 45.9468 72.9196 46.1313 72.9668C46.3158 73.0141 46.5096 73.0109 46.6925 72.9576L46.735 73.0001Z" fill="white"/>
<path d="M49.7374 60.7769L60.3908 50.1234C60.3908 50.1234 61.1421 49.3721 61.8934 50.1234L68.2644 56.4944C68.2644 56.4944 69.0157 57.2458 68.2644 57.9971L57.611 68.6505C57.611 68.6505 56.8597 69.4018 56.1084 68.6505L49.7374 62.2795C49.7374 62.2795 48.9861 61.5282 49.7374 60.7769Z" fill="white"/>
<path d="M71.3635 54.8951C71.8742 54.3718 72.2768 53.7531 72.5484 53.0743C72.8199 52.3955 72.9551 51.6698 72.9463 50.9387C72.9374 50.2076 72.7846 49.4854 72.4966 48.8134C72.2086 48.1414 71.7911 47.5326 71.2679 47.0219C70.7446 46.5113 70.1259 46.1086 69.4471 45.8371C68.7683 45.5655 68.0426 45.4303 67.3115 45.4392C66.5804 45.4481 65.8582 45.6008 65.1862 45.8888C64.5141 46.1768 63.9054 46.5943 63.3947 47.1176C63.2931 47.213 63.2121 47.3282 63.1567 47.4561C63.1013 47.584 63.0728 47.7219 63.0728 47.8613C63.0728 48.0007 63.1013 48.1386 63.1567 48.2665C63.2121 48.3945 63.2931 48.5097 63.3947 48.6051L69.7697 54.9801C69.9987 55.1659 70.2885 55.2601 70.583 55.2444C70.8774 55.2287 71.1556 55.1042 71.3635 54.8951Z" fill="white"/>
</svg>
