<svg width="85" height="85" viewBox="0 0 85 85" fill="none" xmlns="http://www.w3.org/2000/svg">
<circle cx="42.5" cy="42.5" r="42.5" fill="#E41B38"/>
<path d="M54.1111 19C55.3384 19 56.3333 19.985 56.3333 21.2V23.4H58.5556C61.0102 23.4 63 25.3699 63 27.8V58.6C63 61.0301 61.0102 63 58.5556 63H27.4444C24.9898 63 23 61.0301 23 58.6V27.8C23 25.3699 24.9898 23.4 27.4444 23.4H29.6667V21.2C29.6667 19.985 30.6616 19 31.8889 19C33.1162 19 34.1111 19.985 34.1111 21.2V23.4H51.8889V21.2C51.8889 19.985 52.8838 19 54.1111 19ZM27.4444 58.6H58.5556V36.6H27.4444V58.6ZM48.0693 40.6735C49.5073 40.6735 50.6736 41.8279 50.6736 43.2515V53.0485C50.6736 53.9881 49.904 54.75 48.9549 54.75C48.0056 54.75 47.236 53.9881 47.236 53.0485V51.463L47.5702 44.7297L44.4953 53.6887C44.2771 54.3232 43.6749 54.75 42.9978 54.75C42.3207 54.75 41.7187 54.3232 41.5004 53.6887L38.4232 44.7297L38.7596 51.463V53.0527C38.7596 53.9901 37.992 54.75 37.0451 54.75C36.0983 54.75 35.3307 53.9901 35.3307 53.0527V43.2451C35.3307 41.8248 36.4937 40.6735 37.9284 40.6735C39.0571 40.6735 40.0573 41.3949 40.4024 42.4588L42.9978 50.4681L45.5911 42.463C45.9369 41.3969 46.9382 40.6737 48.0693 40.6735Z" fill="white"/>
</svg>
