<svg width="87" height="87" viewBox="0 0 87 87" fill="none" xmlns="http://www.w3.org/2000/svg">
<circle cx="43.5" cy="43.5" r="43.5" fill="#E41B38"/>
<path d="M67.5437 50.689C69.4528 50.6891 71 52.3254 71 54.3445C71 56.3636 69.4528 58 67.5437 58H20.4563C18.5471 58 17 56.3637 17 54.3445C17 52.3253 18.5471 50.689 20.4563 50.689H67.5437ZM67.5437 31C69.4529 31 71 32.6363 71 34.6555C71 36.6747 69.4529 38.311 67.5437 38.311H20.4563C18.5472 38.3109 17 36.6746 17 34.6555C17 32.6364 18.5472 31 20.4563 31H67.5437Z" fill="#E5F8F8"/>
</svg>
