<svg width="58" height="72" viewBox="0 0 58 72" fill="none" xmlns="http://www.w3.org/2000/svg">
<path d="M4.64 38.3226V55.7419H1.16C0.852349 55.7419 0.557299 55.8643 0.339756 56.0821C0.122214 56.2999 0 56.5952 0 56.9032V70.8387C0 71.1467 0.122214 71.4421 0.339756 71.6599C0.557299 71.8776 0.852349 72 1.16 72H5.8C6.10765 72 6.4027 71.8776 6.62024 71.6599C6.83779 71.4421 6.96 71.1467 6.96 70.8387V70.8085C7.95805 71.5771 9.18086 71.9957 10.44 72H26.68C27.9391 71.9957 29.1619 71.5771 30.16 70.8085V70.8387C30.16 71.1467 30.2822 71.4421 30.4998 71.6599C30.7173 71.8776 31.0123 72 31.32 72H35.96C36.2677 72 36.5627 71.8776 36.7802 71.6599C36.9978 71.4421 37.12 71.1467 37.12 70.8387V56.9032C37.12 56.5952 36.9978 56.2999 36.7802 56.0821C36.5627 55.8643 36.2677 55.7419 35.96 55.7419H32.48V53.3032C33.7892 53.0337 34.9655 52.3206 35.8107 51.284C36.6559 50.2475 37.1183 48.9509 37.12 47.6129V9.29032C37.1225 8.47654 37.338 7.67762 37.7451 6.97322C38.1522 6.26882 38.7365 5.68355 39.44 5.27574V16.2581C39.44 16.4492 39.4871 16.6374 39.5771 16.8059C39.6672 16.9745 39.7974 17.1182 39.9562 17.2243L49.88 23.8471V60.3871C49.5723 60.3871 49.2773 60.5094 49.0598 60.7272C48.8422 60.945 48.72 61.2404 48.72 61.5484V70.8387C48.72 71.1467 48.8422 71.4421 49.0598 71.6599C49.2773 71.8776 49.5723 72 49.88 72H56.84C57.1476 72 57.4427 71.8776 57.6602 71.6599C57.8778 71.4421 58 71.1467 58 70.8387V61.5484C58 61.2404 57.8778 60.945 57.6602 60.7272C57.4427 60.5094 57.1476 60.3871 56.84 60.3871V6.96774C56.84 6.65975 56.7178 6.36437 56.5002 6.14659C56.2827 5.9288 55.9876 5.80645 55.68 5.80645H51.4599L45.5323 0.860516C45.0591 0.465073 44.4946 0.194258 43.8902 0.0726692C43.2859 -0.0489195 42.6608 -0.0174297 42.0716 0.164279C41.4825 0.345987 40.9481 0.672156 40.5169 1.11316C40.0856 1.55417 39.7713 2.09603 39.6024 2.68955C38.2106 3.14498 36.9975 4.02785 36.1354 5.21277C35.2733 6.3977 34.806 7.82442 34.8 9.29032V47.6129C34.797 48.3309 34.5725 49.0304 34.1573 49.6158C33.742 50.2012 33.1562 50.6438 32.48 50.8831V38.3226C32.4766 36.9571 31.9926 35.6365 31.113 34.5928C30.2334 33.5492 29.0146 32.8492 27.6706 32.616L24.476 14.4813L27.325 12.5791C27.4836 12.4729 27.6136 12.3291 27.7034 12.1606C27.7932 11.9921 27.8402 11.8039 27.84 11.6129V5.80645C27.8382 4.26705 27.2265 2.79123 26.1392 1.70271C25.0519 0.614186 23.5777 0.00184396 22.04 0H15.08C13.5423 0.00184396 12.0681 0.614186 10.9808 1.70271C9.8935 2.79123 9.28184 4.26705 9.28 5.80645V11.6129C9.27997 11.804 9.32707 11.9922 9.41712 12.1608C9.50716 12.3293 9.63738 12.473 9.7962 12.5791L12.644 14.4813L9.44936 32.616C8.10542 32.8492 6.88658 33.5492 6.00701 34.5928C5.12744 35.6365 4.64342 36.9571 4.64 38.3226ZM41.76 15.6368V7.97226L49.88 13.392V21.0565L41.76 15.6368ZM54.52 40.6452H52.2V31.3548H54.52V40.6452ZM55.68 69.6774H51.04V62.7097H55.68V69.6774ZM52.2 60.3871V42.9677H54.52V60.3871H52.2ZM54.52 29.0323H52.2V8.12903H54.52V29.0323ZM43.152 2.32258C43.4782 2.32293 43.794 2.4371 44.0452 2.64542L49.88 7.51239V10.6049L41.76 5.18516V3.71613C41.76 3.53313 41.796 3.35191 41.866 3.18284C41.9359 3.01377 42.0384 2.86014 42.1677 2.73074C42.4288 2.4694 42.7828 2.32258 43.152 2.32258ZM30.16 48.0565L23.8415 51.2187C23.6486 51.3152 23.4865 51.4635 23.3732 51.6471C23.2599 51.8307 23.1999 52.0423 23.2 52.2581V69.6774H13.92V52.2581C13.9212 52.0413 13.8617 51.8285 13.7484 51.6438C13.635 51.4591 13.4722 51.3098 13.2785 51.2129L6.96 48.0565V40.6452H30.16V48.0565ZM4.64 69.6774H2.32V58.0645H4.64V69.6774ZM6.96 66.1936V50.6532L11.6 52.9757V69.6774H10.44C9.51705 69.6774 8.63189 69.3104 7.97927 68.657C7.32664 68.0037 6.96 67.1175 6.96 66.1936ZM26.68 69.6774H25.52V52.9757L30.16 50.6532V66.1936C30.16 67.1175 29.7934 68.0037 29.1407 68.657C28.4881 69.3104 27.603 69.6774 26.68 69.6774ZM34.8 58.0645V69.6774H32.48V58.0645H34.8ZM30.16 38.3226H6.96C6.96 37.3986 7.32664 36.5125 7.97927 35.8591C8.63189 35.2058 9.51705 34.8387 10.44 34.8387H26.68C27.603 34.8387 28.4881 35.2058 29.1407 35.8591C29.7934 36.5125 30.16 37.3986 30.16 38.3226ZM16.4175 32.5161L18.3895 18.7328C18.4016 18.6961 18.4249 18.6643 18.4562 18.6417C18.4874 18.6191 18.5249 18.6069 18.5635 18.6069C18.602 18.6069 18.6396 18.6191 18.6708 18.6417C18.702 18.6643 18.7254 18.6961 18.7375 18.7328L20.7025 32.5161H16.4175ZM15.08 2.32258H22.04C22.7572 2.32556 23.4559 2.55029 24.0406 2.96604C24.6254 3.38178 25.0675 3.96824 25.3066 4.64516H11.8134C12.0525 3.96824 12.4946 3.38178 13.0793 2.96604C13.6641 2.55029 14.3628 2.32556 15.08 2.32258ZM11.6 10.9916V6.96774H25.52V10.9916L23.0921 12.6116C21.6651 11.9776 20.1212 11.6501 18.56 11.6501C16.9988 11.6501 15.4549 11.9776 14.0279 12.6116L11.6 10.9916ZM14.9559 14.7356C16.0896 14.2272 17.3178 13.9644 18.56 13.9644C19.8022 13.9644 21.0304 14.2272 22.1641 14.7356L25.2973 32.5161H23.0469L21.0331 18.4053C20.9474 17.8098 20.6503 17.2652 20.196 16.8712C19.7418 16.4773 19.161 16.2605 18.56 16.2605C17.959 16.2605 17.3782 16.4773 16.924 16.8712C16.4697 17.2652 16.1726 17.8098 16.0869 18.4053L14.0731 32.5161H11.8227L14.9559 14.7356Z" fill="black"/>
<path d="M18.56 67.3548C19.8413 67.3548 20.88 66.315 20.88 65.0323C20.88 63.7495 19.8413 62.7097 18.56 62.7097C17.2787 62.7097 16.24 63.7495 16.24 65.0323C16.24 66.315 17.2787 67.3548 18.56 67.3548Z" fill="black"/>
<path d="M18.56 52.2581C19.3788 52.2581 20.1712 51.9684 20.7973 51.4402C21.4234 50.912 21.8428 50.1793 21.9816 49.3715C22.1204 48.5637 21.9696 47.7328 21.5557 47.0255C21.1419 46.3183 20.4917 45.7802 19.72 45.5063V42.9677H17.4V45.4994C16.6219 45.7684 15.9646 46.3056 15.5456 47.0149C15.1265 47.7243 14.973 48.5597 15.1124 49.372C15.2518 50.1842 15.6751 50.9204 16.3066 51.4491C16.9381 51.9777 17.7368 52.2645 18.56 52.2581ZM18.56 47.6129C18.7894 47.6129 19.0137 47.681 19.2045 47.8086C19.3952 47.9362 19.5439 48.1176 19.6317 48.3298C19.7195 48.542 19.7425 48.7755 19.6977 49.0008C19.653 49.226 19.5425 49.4329 19.3802 49.5953C19.218 49.7578 19.0113 49.8684 18.7863 49.9132C18.5613 49.958 18.328 49.935 18.1161 49.8471C17.9041 49.7592 17.723 49.6103 17.5955 49.4194C17.468 49.2284 17.4 49.0039 17.4 48.7742C17.4 48.4662 17.5222 48.1708 17.7398 47.953C17.9573 47.7353 18.2523 47.6129 18.56 47.6129Z" fill="black"/>
</svg>
