<svg width="70" height="70" viewBox="0 0 70 70" fill="none" xmlns="http://www.w3.org/2000/svg">
<path d="M66.6129 60.9677H57.5806C56.9574 60.9677 56.4516 60.4607 56.4516 59.8387C56.4516 59.2166 56.9574 58.7096 57.5806 58.7096H62.0967C63.9641 58.7096 65.4838 57.19 65.4838 55.3226C65.4838 53.4551 63.9641 51.9355 62.0967 51.9355H44.5685L47.2782 31.6129H47.4193C48.6646 31.6129 49.6773 30.6003 49.6773 29.3549V27.0968C49.6773 25.8515 48.6646 24.8388 47.4193 24.8388H47.3052C46.7802 22.2657 44.5007 20.3227 41.7741 20.3227C41.0765 20.3227 40.3922 20.4503 39.7532 20.6953C38.7347 19.0842 36.9508 18.0646 35 18.0646C33.049 18.0646 31.2651 19.0842 30.2468 20.6953C29.6089 20.4503 28.9179 20.3407 28.2259 20.3396V17.8557C29.5367 17.3883 30.4839 16.1463 30.4839 14.6763V3.38707C30.4839 1.51963 28.9641 0 27.0968 0H22.5807C20.7133 0 19.1937 1.51963 19.1937 3.38707V14.6774C19.1937 16.1474 20.141 17.3894 21.4517 17.8568V21.4348C20.3938 20.6354 19.0481 20.2053 17.6006 20.3453C16.7222 18.3176 14.6922 16.9356 12.4195 16.9356C10.14 16.9356 8.11904 18.3075 7.24404 20.3611C4.8166 20.6445 2.86002 22.477 2.37795 24.8388H2.25832C1.01268 24.8387 0 25.8515 0 27.0968V29.3549C0 30.6003 1.01268 31.6129 2.25805 31.6129H2.39914L5.71061 56.4516H0V70H49.6774V67.742H66.6129C68.4804 67.742 70 66.2223 70 64.3549C70 62.4874 68.4804 60.9677 66.6129 60.9677ZM41.6884 56.4516H36.7771C35.612 52.3724 32.3997 49.0767 28.2257 47.8946V31.6128H45.001L41.6884 56.4516ZM34.4129 56.4516H30.4839C30.4839 55.2062 29.4712 54.1935 28.2259 54.1935V50.2656C31.133 51.2954 33.3968 53.5985 34.4129 56.4516ZM47.4194 27.0968V29.3549H28.2259V27.0968H47.4194ZM30.1215 23.161L31.3351 23.984L31.8206 22.5987C32.296 21.2371 33.574 20.3226 35 20.3226C36.426 20.3226 37.704 21.2371 38.1794 22.5987L38.6649 23.984L39.8785 23.161C40.4385 22.7816 41.0934 22.5806 41.7741 22.5806C43.2441 22.5806 44.4861 23.5279 44.9535 24.8387H28.2259V22.593C28.8941 22.5954 29.5626 22.7827 30.1215 23.161ZM21.4516 3.38707C21.4516 2.765 21.9574 2.25805 22.5806 2.25805H27.0967C27.7199 2.25805 28.2257 2.765 28.2257 3.38707V14.6774C28.2257 15.2995 27.7199 15.8065 27.0967 15.8065H22.5806C21.9574 15.8065 21.4516 15.2995 21.4516 14.6774V3.38707ZM25.9677 18.0645V54.1935H23.7096V18.0645H25.9677ZM28.2259 56.4516L28.227 58.7096H21.4516V56.4516H28.2259ZM19.1935 56.4516H15.2645C16.2795 53.5974 18.5432 51.2952 21.4516 50.2656V54.1935C20.2063 54.1935 19.1935 55.2063 19.1935 56.4516ZM7.82537 22.5773L8.92842 22.6248L9.15195 21.7463C9.53463 20.2437 10.8794 19.1937 12.4194 19.1937C14.009 19.1937 15.4023 20.3216 15.7309 21.8762L15.9815 23.0594L17.1444 22.7285C17.4989 22.628 17.7913 22.5806 18.0645 22.5806C19.5345 22.5806 20.7765 23.5279 21.2439 24.8387H4.72268C5.18793 23.5268 6.41635 22.5795 7.82537 22.5773ZM2.25805 29.3549V27.0968H21.4516V29.3549H2.25805ZM4.67647 31.6129H21.4516V47.8935C17.2752 49.0756 14.0643 52.3712 12.8991 56.4516H7.98793L4.67647 31.6129ZM47.4194 67.742H2.25805V65.4839H47.4194V67.742ZM47.4194 63.2259H2.25805V58.7098H12.4724C12.4385 59.0823 12.4194 59.4583 12.4194 59.8388V60.9678H14.6774V59.8388C14.6774 59.4572 14.7068 59.0823 14.7485 58.7098H19.1935C19.1935 59.9551 20.2062 60.9678 21.4516 60.9678H28.2257C29.4711 60.9678 30.4838 59.955 30.4838 58.7098H34.9288C34.9706 59.0823 34.9999 59.4572 34.9999 59.8388V60.9678H37.2579V59.8388C37.2579 59.4594 37.2388 59.0823 37.2049 58.7098H47.4193L47.4194 63.2259ZM66.6129 65.4839H49.6774V56.4516H43.9668L44.2683 54.1935H62.0968C62.72 54.1935 63.2259 54.7005 63.2259 55.3226C63.2259 55.9446 62.72 56.4516 62.0968 56.4516H57.5807C55.7133 56.4516 54.1937 57.9712 54.1937 59.8387C54.1937 61.7061 55.7133 63.2257 57.5807 63.2257H66.6131C67.2362 63.2257 67.7421 63.7327 67.7421 64.3548C67.742 64.977 67.2361 65.4839 66.6129 65.4839Z" fill="white"/>
<path d="M7.90316 11.2904C7.90316 13.1578 9.42279 14.6774 11.2902 14.6774C13.1577 14.6774 14.6773 13.1578 14.6773 11.2904C14.6773 9.42293 13.1577 7.90316 11.2904 7.90316C9.42307 7.90316 7.90316 9.42293 7.90316 11.2904ZM11.2904 10.1613C11.9135 10.1613 12.4194 10.6683 12.4194 11.2904C12.4194 11.9124 11.9135 12.4194 11.2904 12.4194C10.6672 12.4194 10.1613 11.9124 10.1613 11.2904C10.1613 10.6683 10.6671 10.1613 11.2904 10.1613Z" fill="white"/>
<path d="M4.51609 9.03232C7.0067 9.03232 9.03219 7.00684 9.03219 4.51623C9.03219 2.02563 7.00684 0 4.51609 0C2.02535 0 0 2.02549 0 4.51609C0 7.0067 2.02549 9.03232 4.51609 9.03232ZM4.51609 2.25805C5.76147 2.25805 6.77414 3.27072 6.77414 4.51609C6.77414 5.76147 5.76147 6.77414 4.51609 6.77414C3.27072 6.77414 2.25805 5.76147 2.25805 4.51609C2.25805 3.27072 3.27086 2.25805 4.51609 2.25805Z" fill="white"/>
<path d="M39.5161 13.5484C42.0067 13.5484 44.0322 11.5229 44.0322 9.03232C44.0322 6.54172 42.0067 4.51623 39.5161 4.51623C37.0255 4.51609 35 6.54158 35 9.03232C35 11.5231 37.0255 13.5484 39.5161 13.5484ZM39.5161 6.77414C40.7615 6.77414 41.7741 7.78682 41.7741 9.03219C41.7741 10.2776 40.7615 11.2902 39.5161 11.2902C38.2707 11.2902 37.258 10.2776 37.258 9.03219C37.258 7.78682 38.2709 6.77414 39.5161 6.77414Z" fill="white"/>
<path d="M57.5806 11.2904C60.6933 11.2904 63.2257 8.75793 63.2257 5.64525C63.2257 2.53258 60.6934 0 57.5806 0C54.4678 0 51.9355 2.53244 51.9355 5.64512C51.9355 8.75779 54.4679 11.2904 57.5806 11.2904ZM57.5806 2.25805C59.4481 2.25805 60.9677 3.77768 60.9677 5.64512C60.9677 7.51256 59.4481 9.03219 57.5806 9.03219C55.7132 9.03219 54.1935 7.51256 54.1935 5.64512C54.1935 3.77768 55.7132 2.25805 57.5806 2.25805Z" fill="white"/>
<path d="M65.4839 23.7096C65.4839 21.8422 63.9643 20.3226 62.0968 20.3226C60.2294 20.3226 58.7098 21.8422 58.7098 23.7096C58.7098 25.5771 60.2294 27.0967 62.0968 27.0967C63.9641 27.0968 65.4839 25.5771 65.4839 23.7096ZM60.9677 23.7096C60.9677 23.0876 61.4735 22.5806 62.0967 22.5806C62.7199 22.5806 63.2257 23.0876 63.2257 23.7096C63.2257 24.3317 62.7199 24.8387 62.0967 24.8387C61.4735 24.8387 60.9677 24.3318 60.9677 23.7096Z" fill="white"/>
<path d="M53.0645 33.871C53.0645 36.3616 55.09 38.3871 57.5806 38.3871C60.0712 38.3871 62.0967 36.3616 62.0967 33.871C62.0967 31.3804 60.0712 29.3549 57.5806 29.3549C55.09 29.3549 53.0645 31.3804 53.0645 33.871ZM59.8386 33.871C59.8386 35.1163 58.826 36.129 57.5806 36.129C56.3352 36.129 55.3226 35.1163 55.3226 33.871C55.3226 32.6256 56.3354 31.6129 57.5806 31.6129C58.8258 31.6129 59.8386 32.6256 59.8386 33.871Z" fill="white"/>
<path d="M64.3549 46.2904C66.2223 46.2904 67.742 44.7707 67.742 42.9033C67.742 41.0359 66.2223 39.5162 64.3549 39.5162C62.4874 39.5162 60.9678 41.0359 60.9678 42.9033C60.9677 44.7706 62.4874 46.2904 64.3549 46.2904ZM64.3549 41.7741C64.978 41.7741 65.4839 42.2811 65.4839 42.9032C65.4839 43.5252 64.978 44.0322 64.3549 44.0322C63.7317 44.0322 63.2259 43.5252 63.2259 42.9032C63.2259 42.2811 63.7316 41.7741 64.3549 41.7741Z" fill="white"/>
<path d="M66.6129 16.9355C68.4804 16.9355 70 15.4159 70 13.5484C70 11.681 68.4804 10.1613 66.6129 10.1613C64.7455 10.1613 63.2259 11.681 63.2259 13.5484C63.2259 15.4159 64.7455 16.9355 66.6129 16.9355ZM66.6129 12.4194C67.2361 12.4194 67.742 12.9263 67.742 13.5484C67.742 14.1705 67.2361 14.6774 66.6129 14.6774C65.9898 14.6774 65.4839 14.1705 65.4839 13.5484C65.4839 12.9263 65.9896 12.4194 66.6129 12.4194Z" fill="white"/>
</svg>
