<svg width="76" height="76" viewBox="0 0 76 76" fill="none" xmlns="http://www.w3.org/2000/svg">
<path d="M1.219 43.8796H4.87525V74.3483C4.87525 74.6716 5.00365 74.9815 5.23221 75.2101C5.46077 75.4387 5.77077 75.5671 6.094 75.5671H69.469C69.7922 75.5671 70.1022 75.4387 70.3308 75.2101C70.5593 74.9815 70.6878 74.6716 70.6878 74.3483V43.8796H74.344C74.5247 43.8796 74.7032 43.8394 74.8665 43.762C75.0299 43.6845 75.1739 43.5717 75.2882 43.4317C75.4025 43.2917 75.4843 43.1281 75.5276 42.9526C75.5708 42.7771 75.5745 42.5942 75.5384 42.4171L70.6634 18.0421C70.6072 17.7668 70.4576 17.5194 70.24 17.3417C70.0223 17.164 69.75 17.067 69.469 17.0671H63.3753V7.31707C63.3753 6.99384 63.2468 6.68384 63.0183 6.45528C62.7897 6.22672 62.4797 6.09832 62.1565 6.09832H49.969C49.6458 6.09832 49.3358 6.22672 49.1072 6.45528C48.8787 6.68384 48.7503 6.99384 48.7503 7.31707V17.0671H38.6797C38.6444 16.9732 38.5993 16.8855 38.5676 16.7892L37.7145 14.2444C37.6343 14.0006 37.4792 13.7883 37.2713 13.6378C37.0634 13.4873 36.8133 13.4062 36.5567 13.4062C36.3 13.4062 36.0499 13.4873 35.842 13.6378C35.6341 13.7883 35.479 14.0006 35.3988 14.2444L34.5457 16.7892C34.514 16.8855 34.4689 16.9732 34.4336 17.0671H20.0194L20.2108 16.5394C20.6825 15.2249 21.4471 14.0349 22.4467 13.0596C23.4463 12.0843 24.6547 11.3492 25.9803 10.9099C26.2302 10.8262 26.4461 10.6638 26.5959 10.447C26.7456 10.2302 26.8211 9.97067 26.8109 9.70738C26.8007 9.44409 26.7055 9.19118 26.5395 8.98655C26.3735 8.78193 26.1457 8.63661 25.8902 8.57238C24.5931 8.25212 23.3984 7.60808 22.4179 6.70051C21.4375 5.79293 20.7032 4.65148 20.2839 3.38295L19.4308 0.838195C19.3506 0.594362 19.1956 0.382055 18.9877 0.231544C18.7797 0.0810322 18.5296 0 18.273 0C18.0163 0 17.7662 0.0810322 17.5583 0.231544C17.3504 0.382055 17.1953 0.594362 17.1152 0.838195L16.262 3.38295C15.8427 4.65148 15.1085 5.79293 14.128 6.70051C13.1475 7.60808 11.9529 8.25212 10.6558 8.57238C10.4002 8.63661 10.1724 8.78193 10.0064 8.98655C9.8404 9.19118 9.74519 9.44409 9.73503 9.70738C9.72487 9.97067 9.80032 10.2302 9.95006 10.447C10.0998 10.6638 10.3158 10.8262 10.5656 10.9099C11.8914 11.3496 13.0999 12.085 14.0997 13.0604C15.0994 14.0359 15.8643 15.226 16.3364 16.5406L16.5265 17.0671H6.094C5.81304 17.067 5.54069 17.164 5.32304 17.3417C5.10539 17.5194 4.95582 17.7668 4.89962 18.0421L0.0246238 42.4171C-0.0115252 42.5942 -0.00783226 42.7771 0.0354353 42.9526C0.0787028 43.1281 0.160461 43.2917 0.274789 43.4317C0.389116 43.5717 0.53315 43.6845 0.696457 43.762C0.859763 43.8394 1.03825 43.8796 1.219 43.8796ZM13.9659 9.84354C15.8943 8.72691 17.4085 7.01508 18.2815 4.96488C19.1551 7.01372 20.6693 8.72419 22.5971 9.83988C20.7077 11.0481 19.2088 12.7777 18.2815 14.8197C17.3536 12.7791 15.8547 11.0508 13.9659 9.84354ZM31.6877 73.1296V49.9733H43.8753V73.1296H31.6877ZM68.2503 73.1296H46.3128V48.7546C46.3128 48.4313 46.1843 48.1213 45.9558 47.8928C45.7272 47.6642 45.4172 47.5358 45.094 47.5358H30.469C30.1458 47.5358 29.8358 47.6642 29.6072 47.8928C29.3787 48.1213 29.2502 48.4313 29.2502 48.7546V73.1296H7.31275V43.8796H68.2503V73.1296ZM51.1878 8.53582H60.9378V17.0671H51.1878V8.53582ZM36.5627 18.3711C37.4364 20.42 38.9506 22.1304 40.8783 23.2461C38.989 24.4544 37.4901 26.184 36.5627 28.2259C35.6348 26.1853 34.136 24.457 32.2472 23.2498C34.1755 22.1332 35.6898 20.4213 36.5627 18.3711ZM7.09337 19.5046H32.9979C31.9348 20.7235 30.5234 21.5871 28.9541 21.9786C28.6986 22.0429 28.4707 22.1882 28.3047 22.3928C28.1387 22.5974 28.0435 22.8503 28.0333 23.1136C28.0232 23.3769 28.0986 23.6364 28.2484 23.8532C28.3981 24.07 28.6141 24.2325 28.8639 24.3162C30.1897 24.7558 31.3982 25.4912 32.398 26.4667C33.3977 27.4422 34.1626 28.6322 34.6347 29.9468L35.4171 32.1077C35.5025 32.3429 35.6583 32.5462 35.8633 32.6899C36.0682 32.8335 36.3125 32.9106 36.5627 32.9106C36.813 32.9106 37.0573 32.8335 37.2622 32.6899C37.4672 32.5462 37.623 32.3429 37.7084 32.1077L38.492 29.9468C38.9638 28.6323 39.7284 27.4424 40.728 26.4671C41.7275 25.4918 42.9359 24.7567 44.2616 24.3174C44.5114 24.2337 44.7274 24.0712 44.8771 23.8544C45.0269 23.6376 45.1023 23.3781 45.0922 23.1148C45.082 22.8516 44.9868 22.5986 44.8208 22.394C44.6548 22.1894 44.4269 22.0441 44.1714 21.9799C42.6019 21.588 41.1905 20.724 40.1276 19.5046H68.4696L72.8571 41.4421H20.1486L20.3241 41.0423C21.2187 39.0029 22.8406 37.3697 24.8737 36.461C25.098 36.3608 25.2867 36.1951 25.4152 35.9857C25.5437 35.7763 25.6058 35.533 25.5936 35.2876C25.5813 35.0422 25.4952 34.8063 25.3465 34.6108C25.1978 34.4152 24.9935 34.2691 24.7604 34.1917C23.7821 33.8671 22.8866 33.3325 22.1366 32.6254C21.3867 31.9182 20.8006 31.0556 20.4192 30.0979L19.4125 27.5824C19.3218 27.3567 19.1657 27.1632 18.9641 27.0269C18.7626 26.8906 18.5248 26.8178 18.2815 26.8178C18.0382 26.8178 17.8004 26.8906 17.5989 27.0269C17.3973 27.1632 17.2411 27.3567 17.1505 27.5824L16.1438 30.0992C15.7619 31.0563 15.1755 31.9184 14.4256 32.6253C13.6758 33.3322 12.7806 33.8668 11.8026 34.1917C11.5695 34.2691 11.3652 34.4152 11.2165 34.6108C11.0678 34.8063 10.9817 35.0422 10.9694 35.2876C10.9572 35.533 11.0193 35.7763 11.1478 35.9857C11.2763 36.1951 11.465 36.3608 11.6893 36.461C13.7231 37.3697 15.3455 39.0035 16.2401 41.0435L16.4144 41.4421H2.70587L7.09337 19.5046ZM18.2815 39.6529C17.47 37.9856 16.2639 36.5415 14.7678 35.4458C16.3172 34.4358 17.5383 32.9957 18.2815 31.3021C19.0247 32.9957 20.2458 34.4358 21.7952 35.4458C20.2991 36.5415 19.093 37.9856 18.2815 39.6529Z" fill="black"/>
<path d="M9.75025 48.7546V63.3796C9.75025 63.7028 9.87865 64.0128 10.1072 64.2414C10.3358 64.4699 10.6458 64.5983 10.969 64.5983H25.594C25.9172 64.5983 26.2272 64.4699 26.4558 64.2414C26.6843 64.0128 26.8127 63.7028 26.8127 63.3796V48.7546C26.8127 48.4313 26.6843 48.1213 26.4558 47.8928C26.2272 47.6642 25.9172 47.5358 25.594 47.5358H10.969C10.6458 47.5358 10.3358 47.6642 10.1072 47.8928C9.87865 48.1213 9.75025 48.4313 9.75025 48.7546ZM12.1877 57.2858H17.0627V62.1608H12.1877V57.2858ZM19.5002 62.1608V57.2858H24.3752V62.1608H19.5002ZM24.3752 54.8483H19.5002V49.9733H24.3752V54.8483ZM17.0627 49.9733V54.8483H12.1877V49.9733H17.0627Z" fill="black"/>
<path d="M49.969 64.5983H64.594C64.9172 64.5983 65.2272 64.4699 65.4558 64.2414C65.6843 64.0128 65.8128 63.7028 65.8128 63.3796V48.7546C65.8128 48.4313 65.6843 48.1213 65.4558 47.8928C65.2272 47.6642 64.9172 47.5358 64.594 47.5358H49.969C49.6458 47.5358 49.3358 47.6642 49.1072 47.8928C48.8787 48.1213 48.7502 48.4313 48.7502 48.7546V63.3796C48.7502 63.7028 48.8787 64.0128 49.1072 64.2414C49.3358 64.4699 49.6458 64.5983 49.969 64.5983ZM51.1877 57.2858H56.0627V62.1608H51.1877V57.2858ZM58.5002 62.1608V57.2858H63.3752V62.1608H58.5002ZM63.3752 54.8483H58.5002V49.9733H63.3752V54.8483ZM56.0627 49.9733V54.8483H51.1877V49.9733H56.0627Z" fill="black"/>
</svg>
