<svg
  width="73"
  height="74"
  viewBox="0 0 73 74"
  fill="none"
  xmlns="http://www.w3.org/2000/svg">
  <path
    d="M68.5152 72.0158H65.0261V41.2127C65.0261 40.7521 64.6461 40.3721 64.1855 40.3721C63.7248 40.3721 63.3448 40.7521 63.3448 41.2127V72.0042H52.06V38.5642C52.06 38.1036 51.68 37.7236 51.2194 37.7236C50.7588 37.7236 50.3788 38.1036 50.3788 38.5642V72.0042H43.3085V52.4515H46.1297C46.5903 52.4515 46.9703 52.0715 46.9703 51.6109C46.9703 51.1503 46.5903 50.7703 46.1297 50.7703H23.2261C22.7655 50.7703 22.3855 51.1503 22.3855 51.6109C22.3855 52.0715 22.7655 52.4515 23.2261 52.4515H26.0473V72.0158H18.977V19.4721H45.4158C45.8764 19.4721 46.2564 19.0921 46.2564 18.6315C46.2564 18.1709 45.8764 17.7909 45.4158 17.7909H16.3976V13.4727H47.0509C47.5115 13.4727 47.8915 13.0927 47.8915 12.6321C47.8915 12.1715 47.5115 11.7915 47.0509 11.7915H43.0897V8.74H45.1164C45.9109 8.74 46.5673 8.09515 46.5673 7.28909V1.45091C46.5558 0.644848 45.8994 0 45.1049 0H24.7806C23.9861 0 23.3297 0.644848 23.3297 1.45091V7.28909C23.3297 8.08364 23.9745 8.74 24.7806 8.74H26.8073V11.78H16.1673C15.3727 11.78 14.7164 12.4248 14.7164 13.2309V18.0212C14.7164 18.8158 15.3612 19.4721 16.1673 19.4721H17.2958V27.4752H3.73091C2.76364 27.4752 1.96909 28.2582 1.96909 29.237V33.7394C1.96909 34.7067 2.75212 35.5012 3.73091 35.5012H4.31818V72.0273H0.840606C0.38 72.0273 0 72.4073 0 72.8679C0 73.3285 0.38 73.7085 0.840606 73.7085H68.5267C68.9873 73.7085 69.3673 73.3285 69.3673 72.8679C69.3673 72.3842 68.9873 72.0158 68.5152 72.0158ZM25.0109 1.68121H44.8745V7.04727H25.0109V1.68121ZM28.4885 8.74H41.397V11.78H28.4885V8.74ZM3.66182 33.7279L3.73091 29.1564H17.2842V33.797L3.66182 33.7279ZM17.2842 35.4782V72.0042H5.99939V35.4782H17.2842ZM27.7285 52.4515H33.8315V61.3873H32.6685C32.2079 61.3873 31.8279 61.7673 31.8279 62.2279C31.8279 62.6885 32.2079 63.0685 32.6685 63.0685H33.8315V72.0042H27.7285V52.4515ZM35.5242 63.08H36.6873C37.1479 63.08 37.5279 62.7 37.5279 62.2394C37.5279 61.7788 37.1479 61.3988 36.6873 61.3988H35.5242V52.463H41.6273V72.0273H35.5242V63.08Z"
    fill="white" />
  <path
    d="M28.5115 23.7788C28.5115 22.9382 27.8206 22.2473 26.98 22.2473H23.6867C22.8461 22.2473 22.1552 22.9382 22.1552 23.7788V29.663C22.1552 30.5036 22.8461 31.1945 23.6867 31.1945H26.98C27.8206 31.1945 28.5115 30.5036 28.5115 29.663V23.7788ZM26.8303 29.5133H23.8364V23.9285H26.8303V29.5133Z"
    fill="white" />
  <path
    d="M37.8618 23.7788C37.8618 22.9382 37.1709 22.2473 36.3303 22.2473H33.037C32.1964 22.2473 31.5055 22.9382 31.5055 23.7788V29.663C31.5055 30.5036 32.1964 31.1945 33.037 31.1945H36.3303C37.1709 31.1945 37.8618 30.5036 37.8618 29.663V23.7788ZM36.1806 29.5133H33.1867V23.9285H36.1806V29.5133Z"
    fill="white" />
  <path
    d="M46.3715 28.8224C45.957 28.8224 45.6115 29.1218 45.5424 29.5133H42.5255V23.9285H43.3776C43.8382 23.9285 44.2182 23.5485 44.2182 23.0879C44.2182 22.6273 43.8382 22.2473 43.3776 22.2473H42.3758C41.5352 22.2473 40.8442 22.9382 40.8442 23.7788V29.663C40.8442 30.5036 41.5352 31.1945 42.3758 31.1945H45.6691C46.5097 31.1945 47.2006 30.5036 47.2006 29.663C47.2121 29.1909 46.8321 28.8224 46.3715 28.8224Z"
    fill="white" />
  <path
    d="M26.98 35.8927H23.6867C22.8461 35.8927 22.1552 36.5836 22.1552 37.4242V43.3085C22.1552 44.1491 22.8461 44.84 23.6867 44.84H26.98C27.8206 44.84 28.5115 44.1491 28.5115 43.3085V37.4242C28.5115 36.5721 27.8206 35.8927 26.98 35.8927ZM26.8303 43.1588H23.8364V37.5739H26.8303V43.1588Z"
    fill="white" />
  <path
    d="M36.3303 35.8927H33.037C32.1964 35.8927 31.5055 36.5836 31.5055 37.4242V43.3085C31.5055 44.1491 32.1964 44.84 33.037 44.84H36.3303C37.1709 44.84 37.8618 44.1491 37.8618 43.3085V37.4242C37.8618 36.5721 37.1709 35.8927 36.3303 35.8927ZM36.1806 43.1588H33.1867V37.5739H36.1806V43.1588Z"
    fill="white" />
  <path
    d="M43.2279 36.7333C43.2279 36.2727 42.8479 35.8927 42.3873 35.8927C41.5467 35.8927 40.8558 36.5836 40.8558 37.4242V43.3085C40.8558 44.1491 41.5467 44.84 42.3873 44.84H45.6806C46.5212 44.84 47.2121 44.1491 47.2121 43.3085V41.0055C47.2121 40.5448 46.8321 40.1649 46.3715 40.1649C45.9109 40.1649 45.5309 40.5448 45.5309 41.0055V43.1588H42.537V37.5624C42.9285 37.4933 43.2279 37.1479 43.2279 36.7333Z"
    fill="white" />
  <path
    d="M55.8024 45.7036H59.6255C60.5006 45.7036 61.2145 44.9897 61.2145 44.1145V39.3242C61.2145 38.4491 60.5006 37.7352 59.6255 37.7352H55.8024C54.9273 37.7352 54.2133 38.4491 54.2133 39.3242V44.1145C54.2133 44.9897 54.9158 45.7036 55.8024 45.7036ZM55.8945 39.4164H59.5218V44.0224H55.8945V39.4164Z"
    fill="white" />
  <path
    d="M54.2133 55.86C54.2133 56.7352 54.9273 57.4491 55.8024 57.4491H59.6255C60.5006 57.4491 61.2145 56.7352 61.2145 55.86V51.0697C61.2145 50.1945 60.5006 49.4806 59.6255 49.4806H55.8024C54.9273 49.4806 54.2133 50.1945 54.2133 51.0697V55.86ZM55.8945 51.1618H59.5218V55.7679H55.8945V51.1618Z"
    fill="white" />
  <path
    d="M54.2133 67.617C54.2133 68.4921 54.9273 69.2061 55.8024 69.2061H59.6255C60.5006 69.2061 61.2145 68.4921 61.2145 67.617V62.8267C61.2145 61.9515 60.5006 61.2376 59.6255 61.2376H55.8024C54.9273 61.2376 54.2133 61.9515 54.2133 62.8267V67.617ZM55.8945 62.9073H59.5218V67.5133H55.8945V62.9073Z"
    fill="white" />
  <path
    d="M9.74182 45.7036H13.5648C14.44 45.7036 15.1539 44.9897 15.1539 44.1145V39.3242C15.1539 38.4491 14.44 37.7352 13.5648 37.7352H9.74182C8.86667 37.7352 8.15273 38.4491 8.15273 39.3242V44.1145C8.15273 44.9897 8.85515 45.7036 9.74182 45.7036ZM9.83394 39.4164H13.4612V44.0224H9.83394V39.4164Z"
    fill="white" />
  <path
    d="M9.74182 57.4491H13.5648C14.44 57.4491 15.1539 56.7352 15.1539 55.86V51.0697C15.1539 50.1945 14.44 49.4806 13.5648 49.4806H9.74182C8.86667 49.4806 8.15273 50.1945 8.15273 51.0697V55.86C8.15273 56.7352 8.85515 57.4491 9.74182 57.4491ZM9.83394 51.1618H13.4612V55.7679H9.83394V51.1618Z"
    fill="white" />
  <path
    d="M9.74182 69.2061H13.5648C14.44 69.2061 15.1539 68.4921 15.1539 67.617V62.8267C15.1539 61.9515 14.44 61.2376 13.5648 61.2376H9.74182C8.86667 61.2376 8.15273 61.9515 8.15273 62.8267V67.617C8.15273 68.4921 8.85515 69.2061 9.74182 69.2061ZM9.83394 62.9073H13.4612V67.5133H9.83394V62.9073Z"
    fill="white" />
  <path
    d="M72.7412 6.90909C72.5109 6.03394 71.9697 5.29697 71.1867 4.83636C70.4036 4.37576 69.4939 4.24909 68.6188 4.46788C67.7436 4.68667 67.0067 5.23939 66.5461 6.02242L62.5503 12.7703L61.3412 12.0564C60.2242 11.3885 58.7733 11.5497 57.8176 12.4479L45.8073 23.7327C45.3236 24.1818 45.0933 24.8267 45.1624 25.483C45.2315 26.1394 45.6 26.7152 46.1758 27.0491L63.7594 37.4588C64.0818 37.6545 64.4503 37.7467 64.8188 37.7467C65.0836 37.7467 65.36 37.6891 65.6133 37.5855C66.2236 37.3321 66.6727 36.8255 66.8339 36.1806L70.9564 20.2206C71.2788 18.9539 70.7261 17.6182 69.6091 16.9503L68.3885 16.2364L72.3842 9.48849C72.8333 8.69394 72.9715 7.78424 72.7412 6.90909ZM65.1988 35.7661C65.1527 35.9388 65.0376 36.0079 64.9685 36.0309C64.8994 36.0539 64.7612 36.0885 64.6115 36.0079L60.7885 33.7394L62.6079 30.6764C62.8497 30.2733 62.7115 29.7552 62.3085 29.5248C61.9055 29.2945 61.3873 29.4212 61.157 29.8242L59.3376 32.8873L56.5394 31.2291L59.4067 26.3812C59.6485 25.9782 59.5103 25.46 59.1073 25.2297C58.7042 24.9994 58.1861 25.1261 57.9558 25.5291L55.0885 30.377L52.2903 28.7188L54.1097 25.6558C54.3515 25.2527 54.2133 24.7345 53.8103 24.5042C53.4073 24.2739 52.8891 24.4006 52.6588 24.8036L50.8394 27.8667L47.0164 25.5982C46.8667 25.5061 46.8321 25.3679 46.8206 25.2988C46.8091 25.2297 46.8206 25.08 46.9473 24.9648L55.3764 17.0424L68.0776 24.5618L65.1988 35.7661ZM69.3212 19.7945L68.5267 22.8576L56.6661 15.8333L58.9691 13.6685C59.2109 13.4497 59.5218 13.323 59.8327 13.323C60.0515 13.323 60.2703 13.3806 60.4776 13.4958L68.7339 18.3897C69.2176 18.6776 69.4594 19.2533 69.3212 19.7945ZM70.9218 8.62485L66.9261 15.3727L63.9897 13.6339L67.9855 6.88606C68.2158 6.49455 68.5842 6.21818 69.0333 6.10303C69.4709 5.98788 69.9315 6.05697 70.323 6.28727C70.7145 6.51758 70.9909 6.88606 71.1061 7.33515C71.2212 7.77273 71.1636 8.23333 70.9218 8.62485Z"
    fill="white" />
  <path
    d="M51.0236 35.0751C51.0236 33.1176 49.4346 31.54 47.4885 31.54C45.5424 31.54 43.9533 33.1291 43.9533 35.0751C43.9533 37.0212 45.5424 38.6103 47.4885 38.6103C49.4346 38.6103 51.0236 37.0327 51.0236 35.0751ZM45.623 35.0751C45.623 34.0503 46.4521 33.2212 47.477 33.2212C48.5018 33.2212 49.3309 34.0503 49.3309 35.0751C49.3309 36.1 48.5018 36.9291 47.477 36.9291C46.4521 36.9291 45.623 36.1 45.623 35.0751Z"
    fill="white" />
  <path
    d="M53.2921 12.54C55.0309 12.54 56.4473 11.1236 56.4473 9.38485C56.4473 7.64606 55.0309 6.2297 53.2921 6.2297C51.5533 6.2297 50.137 7.64606 50.137 9.38485C50.137 11.1236 51.5533 12.54 53.2921 12.54ZM53.2921 7.91091C54.0982 7.91091 54.7661 8.56727 54.7661 9.38485C54.7661 10.1909 54.1097 10.8588 53.2921 10.8588C52.4861 10.8588 51.8182 10.2024 51.8182 9.38485C51.8182 8.56727 52.4861 7.91091 53.2921 7.91091Z"
    fill="white" />
  <path
    d="M59.9249 8.2103C61.9745 8.2103 63.6442 6.54061 63.6442 4.49091C63.6442 2.44121 61.9745 0.771515 59.9249 0.771515C57.8752 0.771515 56.2055 2.44121 56.2055 4.49091C56.2055 6.54061 57.8752 8.2103 59.9249 8.2103ZM59.9249 2.46424C61.0418 2.46424 61.9515 3.37394 61.9515 4.49091C61.9515 5.60788 61.0418 6.51758 59.9249 6.51758C58.8079 6.51758 57.8982 5.60788 57.8982 4.49091C57.8982 3.37394 58.8079 2.46424 59.9249 2.46424Z"
    fill="white" />
</svg>
