<svg width="72" height="84" viewBox="0 0 72 84" fill="none" xmlns="http://www.w3.org/2000/svg">
<path fill-rule="evenodd" clip-rule="evenodd" d="M0 35.8349C0 16.0437 16.1177 0 36 0C55.8823 0 72 16.0437 72 35.8349C72 48.6756 65.3435 59.4769 58.1062 67.4483C50.8462 75.4446 42.7342 80.893 39.206 83.08C37.227 84.3067 34.773 84.3067 32.794 83.08C29.2658 80.893 21.1538 75.4446 13.8938 67.4483C6.65649 59.4769 0 48.6756 0 35.8349ZM36 50.5364C44.1569 50.5364 50.7692 43.9544 50.7692 35.8349C50.7692 27.7155 44.1569 21.1334 36 21.1334C27.8431 21.1334 21.2308 27.7155 21.2308 35.8349C21.2308 43.9544 27.8431 50.5364 36 50.5364Z" fill="#E41B38"/>
</svg>
