<svg width="87" height="87" viewBox="0 0 87 87" fill="none" xmlns="http://www.w3.org/2000/svg">
<circle cx="43.5" cy="43.5" r="43.5" fill="#E41B38"/>
<path d="M21.8887 22.9004C23.0483 21.7344 24.9336 21.7292 26.0997 22.8887L43.1055 39.7998L59.9004 23.0986C61.0665 21.9394 62.9519 21.9445 64.1114 23.1104C65.2709 24.2763 65.2654 26.1617 64.0997 27.3213L47.3282 44L64.0997 60.6787C65.2655 61.8383 65.2709 63.7237 64.1114 64.8897C62.9518 66.0555 61.0664 66.0607 59.9004 64.9014L43.1055 48.1992L26.0997 65.1113C24.9336 66.2709 23.0483 66.2657 21.8887 65.0996C20.7291 63.9336 20.7344 62.0483 21.9004 60.8887L38.8829 44L21.9004 27.1113C20.7345 25.9518 20.7292 24.0664 21.8887 22.9004Z" fill="#E5F8F8"/>
</svg>
