<svg width="172" height="31" viewBox="0 0 172 31" fill="none" xmlns="http://www.w3.org/2000/svg">
<path d="M14.6132 0.937068C14.8568 0.518765 15.4611 0.518766 15.7048 0.93707L19.9195 8.17333C20.0088 8.32657 20.1583 8.43522 20.3316 8.47275L28.5162 10.2451C28.9893 10.3475 29.176 10.9223 28.8535 11.2832L23.2738 17.5278C23.1556 17.6601 23.0985 17.8359 23.1164 18.0123L23.96 26.3439C24.0087 26.8256 23.5198 27.1808 23.0768 26.9855L15.4137 23.6086C15.2514 23.5371 15.0665 23.5371 14.9043 23.6086L7.2411 26.9855C6.79812 27.1808 6.30923 26.8256 6.35799 26.3439L7.20156 18.0123C7.21943 17.8359 7.1623 17.6601 7.04415 17.5278L1.46448 11.2832C1.14194 10.9223 1.32868 10.3475 1.8018 10.2451L9.98632 8.47275C10.1596 8.43522 10.3092 8.32657 10.3984 8.17333L14.6132 0.937068Z" fill="#FFC107"/>
<path d="M49.9843 0.937068C50.2279 0.518765 50.8322 0.518766 51.0759 0.93707L55.2906 8.17333C55.3799 8.32657 55.5294 8.43522 55.7027 8.47275L63.8872 10.2451C64.3604 10.3475 64.5471 10.9223 64.2246 11.2832L58.6449 17.5278C58.5267 17.6601 58.4696 17.8359 58.4875 18.0123L59.3311 26.3439C59.3798 26.8256 58.8909 27.1808 58.4479 26.9855L50.7848 23.6086C50.6225 23.5371 50.4376 23.5371 50.2754 23.6086L42.6122 26.9855C42.1692 27.1808 41.6803 26.8256 41.7291 26.3439L42.5727 18.0123C42.5905 17.8359 42.5334 17.6601 42.4152 17.5278L36.8356 11.2832C36.513 10.9223 36.6998 10.3475 37.1729 10.2451L45.3574 8.47275C45.5307 8.43522 45.6803 8.32657 45.7695 8.17333L49.9843 0.937068Z" fill="#FFC107"/>
<path d="M85.3554 0.937068C85.599 0.518765 86.2033 0.518766 86.447 0.93707L90.6617 8.17333C90.7509 8.32657 90.9005 8.43522 91.0738 8.47275L99.2583 10.2451C99.7315 10.3475 99.9182 10.9223 99.5957 11.2832L94.016 17.5278C93.8978 17.6601 93.8407 17.8359 93.8586 18.0123L94.7021 26.3439C94.7509 26.8256 94.262 27.1808 93.819 26.9855L86.1559 23.6086C85.9936 23.5371 85.8087 23.5371 85.6465 23.6086L77.9833 26.9855C77.5403 27.1808 77.0514 26.8256 77.1002 26.3439L77.9438 18.0123C77.9616 17.8359 77.9045 17.6601 77.7863 17.5278L72.2067 11.2832C71.8841 10.9223 72.0709 10.3475 72.544 10.2451L80.7285 8.47275C80.9018 8.43522 81.0514 8.32657 81.1406 8.17333L85.3554 0.937068Z" fill="#FFC107"/>
<path d="M120.726 0.937068C120.97 0.518765 121.574 0.518766 121.818 0.93707L126.033 8.17333C126.122 8.32657 126.272 8.43522 126.445 8.47275L134.629 10.2451C135.103 10.3475 135.289 10.9223 134.967 11.2832L129.387 17.5278C129.269 17.6601 129.212 17.8359 129.23 18.0123L130.073 26.3439C130.122 26.8256 129.633 27.1808 129.19 26.9855L121.527 23.6086C121.365 23.5371 121.18 23.5371 121.018 23.6086L113.354 26.9855C112.911 27.1808 112.423 26.8256 112.471 26.3439L113.315 18.0123C113.333 17.8359 113.276 17.6601 113.157 17.5278L107.578 11.2832C107.255 10.9223 107.442 10.3475 107.915 10.2451L116.1 8.47275C116.273 8.43522 116.422 8.32657 116.512 8.17333L120.726 0.937068Z" fill="#FFC107"/>
<path d="M156.097 0.937068C156.34 0.518765 156.945 0.518766 157.188 0.93707L161.403 8.17333C161.492 8.32657 161.642 8.43522 161.815 8.47275L170 10.2451C170.473 10.3475 170.659 10.9223 170.337 11.2832L164.757 17.5278C164.639 17.6601 164.582 17.8359 164.6 18.0123L165.443 26.3439C165.492 26.8256 165.003 27.1808 164.56 26.9855L156.897 23.6086C156.735 23.5371 156.55 23.5371 156.388 23.6086L148.725 26.9855C148.282 27.1808 147.793 26.8256 147.841 26.3439L148.685 18.0123C148.703 17.8359 148.646 17.6601 148.528 17.5278L142.948 11.2832C142.625 10.9223 142.812 10.3475 143.285 10.2451L151.47 8.47275C151.643 8.43522 151.793 8.32657 151.882 8.17333L156.097 0.937068Z" fill="#FFC107"/>
</svg>
